<?xml version="1.0" encoding="utf-8"?>
<!-- Uploaded to: SVG Repo, www.svgrepo.com, Generator: SVG Repo Mixer Tools -->
<svg width="800px" height="800px" viewBox="-30.16 0 357.764 357.764" xmlns="http://www.w3.org/2000/svg"><defs><style>.a{fill:#ffffff;}.b{fill:#85807f;}.c{fill:#211715;}.d{fill:#b3b3b3;}.e{fill:#3d8dcc;}</style></defs><path class="a" d="M216.178,174.122c-.96-.42-14.9-8.46-17.48-14.85-1.189-2.945-1.39-6.653-1.405-10.22,10.952-7.167,19.385-21.8,21-26.185a51.827,51.827,0,0,0,2.344-6.361l.653.11a8.829,8.829,0,0,0,6.812-1.966c4.262-3.487,6.03-8.35,7.109-11.529,1.524-4.488,1.62-11.743-.65-15.68-.761-1.319-2.528-3.566-6.682-3.712a8.017,8.017,0,0,0-5.794,2.121,46.9,46.9,0,0,0-4.782-24.3c-5.819-11.235-18.352-22.13-45.076-22.13-59.333,0-52.68,46.428-52.68,46.428a8.017,8.017,0,0,0-5.794-2.121c-4.154.146-5.921,2.393-6.681,3.712-2.271,3.937-2.175,11.192-.651,15.68,1.079,3.179,2.847,8.042,7.109,11.529a8.658,8.658,0,0,0,7.37,1.844,60.942,60.942,0,0,0,11.566,21.822,48.566,48.566,0,0,0,12.94,11.322c0,3.716-.15,7.65-1.408,10.754-2.59,6.39-14.34,13.31-15.3,13.73,0,0,6.664,42.657,45.108,42.657S216.178,174.122,216.178,174.122Z"/><path class="b" d="M226.22,35.164A45.822,45.822,0,0,0,217.4,24.816l-8.187-7.278c-10.614-11.827-24.721-15.1-38.625-15.1a63.018,63.018,0,0,0-39,12.821,56.939,56.939,0,0,0-10.992,11.448c-7.126,6.974-12.812,22.212-12.387,37.323A79.255,79.255,0,0,0,110.7,84.317a9.323,9.323,0,0,1,3.057-.588,8.017,8.017,0,0,1,5.794,2.121l2.3,1.61a85.77,85.77,0,0,1,1-9.211c1.065-6.475,7.785-9.46,10.64-15.24,1.644-3.329,2.623-7.221,5.436-9.59,2.119-1.784,4.946-2.389,7.674-2.676,4.224-.445,18.51.192,23.289,1.074,4.042.227,7.96,1.035,13.725,1.768,3.127.4,8.927,1.422,11.145,1.867,8.723,2.005,12.065,4.183,16.446,10.118,1.679,2.275,3.466,6.427,5.121,11.83l5.764,8.45a8.017,8.017,0,0,1,5.794-2.121,9.509,9.509,0,0,1,2.842.508c1.9-7.559,2.71-13.244,2.416-20.2C232.573,50.682,230.372,42.036,226.22,35.164Z"/><path class="a" d="M19.644,178.882C17,173.7,14.556,168.7,11.862,163.556c-.813-1.549-1.577-3.063-3.111-3.916a4.824,4.824,0,0,0-5.445.861c-1.207,1.462-1.074,3.042-.486,4.847.625,1.917,8.821,17.9,11.767,24.551,3.523,6.681,8.608,19.4,8.817,21.133.139,1.626.413,3.964.455,6.7l.026.989c6.074-.529,19.9-1.8,28.549-3.2-.011-.117-.017-.184-.017-.184-.166-2-.222-6.333.436-8.18l.21-.59c3.552-2.359,6.817-4.454,8.841-8.409,2.474-4.835,3.913-11.891,5.439-17.095a32.589,32.589,0,0,0,1.533-10.932,5.48,5.48,0,0,0-1.8-3.178,3.928,3.928,0,0,0-2.814-.8c-3,.3-4.312,2.011-5.4,4.821s-1.652,5.911-3.513,8.281-5.732,3.575-7.858,1.44c-1.251-1.256-1.463-3.19-1.5-4.962a12.949,12.949,0,0,1,1.366-7.008c1.244-2.068,3.845-3.493,6.12-2.687a16.051,16.051,0,0,0,3.82,1.024c2.142.234,3.849-2.211,3.54-4.344a6.662,6.662,0,0,0-3.1-4.994,16.833,16.833,0,0,0-9.25-2.333,10.24,10.24,0,0,0-6.625,3,26.9,26.9,0,0,0-4.82,6.672c-3.8-9.7-9.579-24.019-11.93-29.386-.96-2.18-3.96-3.31-6.33-2.62a5.072,5.072,0,0,0-3.17,5.38c.24,1.25.78,3.48,1.47,5.98-1.222-1.681-3-2.77-5.345-1.86-3.5,1.361-2.935,5.344-2.32,7.195,1.862,5.6,5.962,16.172,6.917,18.722l3.727,10.409Z"/><path class="c" d="M21,211.032c.192,2.233.417,4.458.455,6.7a2.4,2.4,0,0,0,4.8,0c-.038-2.243-.263-4.468-.455-6.7a2.579,2.579,0,0,0-.7-1.7,2.4,2.4,0,0,0-3.394,0,2.353,2.353,0,0,0-.7,1.7Z"/><path class="c" d="M50.539,206.516a11.443,11.443,0,0,0-.445,2.337c-.094.755-.142,1.515-.166,2.276a37.344,37.344,0,0,0,.089,4.205,2.57,2.57,0,0,0,.7,1.7,2.4,2.4,0,0,0,4.1-1.7,31.358,31.358,0,0,1,.1-6.633l-.086.638a8.076,8.076,0,0,1,.34-1.547,2.418,2.418,0,0,0-1.677-2.953,2.459,2.459,0,0,0-2.952,1.677Z"/><path class="c" d="M19.4,143.778c-.483-1.763-.953-3.533-1.335-5.322a2.783,2.783,0,0,1,.92-2.834,2.8,2.8,0,0,1,2.73-.058c1.043.462,1.361,1.39,1.782,2.37.941,2.192,1.994,4.753,3,7.217q1.941,4.74,3.845,9.495,2.163,5.393,4.287,10.8a2.472,2.472,0,0,0,2.952,1.677,2.417,2.417,0,0,0,1.676-2.953q-4.368-11.135-8.915-22.2-.912-2.217-1.843-4.428a20.141,20.141,0,0,0-1.788-3.873c-2.422-3.413-7.78-4.357-11-1.548a7.677,7.677,0,0,0-2.546,5.872,33.377,33.377,0,0,0,1.607,7.063c.815,2.976,5.447,1.713,4.628-1.276Z"/><path class="c" d="M29.648,168.641c-2.065-4.936-4-9.927-5.974-14.9q-1.309-3.309-2.619-6.619c-1.1-2.773-2.421-5.63-5.368-6.828a6.756,6.756,0,0,0-8.86,4.519c-.751,2.871.263,5.609,1.21,8.284,1.9,5.373,4.017,10.666,5.983,16.015,1.271,3.459,2.484,6.94,3.726,10.409A2.463,2.463,0,0,0,20.7,181.2a2.422,2.422,0,0,0,1.676-2.953c-2.522-7.044-5.145-14.04-7.752-21.053-1.006-2.7-2.068-5.41-2.92-8.168a4.97,4.97,0,0,1-.3-2.79c-.052.307.14-.436.174-.526a.861.861,0,0,1,.132-.254,2.223,2.223,0,0,1,1.411-.81c1.853-.23,2.753,2.35,3.31,3.754q1.2,3.034,2.4,6.072c2.042,5.157,4.049,10.331,6.191,15.448a2.48,2.48,0,0,0,2.952,1.676,2.414,2.414,0,0,0,1.676-2.952Z"/><path class="c" d="M21.716,177.671c-2.018-3.966-3.991-7.955-6.018-11.917-1.625-3.178-3.223-7.677-7.058-8.732-3.6-.99-7.833.912-8.531,4.794-.427,2.369.473,4.514,1.447,6.6,4.408,9.454,9.3,18.684,13.617,28.179q2.086,4.585,3.923,9.28a27.48,27.48,0,0,1,1.993,5.792,2.416,2.416,0,0,0,2.953,1.676,2.463,2.463,0,0,0,1.676-2.953,20.9,20.9,0,0,0-1.387-4.216c-.982-2.6-2.043-5.171-3.134-7.728-1.983-4.654-4.215-9.192-6.389-13.757-2.246-4.716-4.583-9.388-6.88-14.078-.848-1.731-1.7-3.46-2.5-5.215-.108-.238-.209-.481-.319-.719.3.662.067.145-.031-.162-.289-.905-.588-2.174.383-2.7a2.353,2.353,0,0,1,3.014.7,29.7,29.7,0,0,1,2.864,5.24c2.1,4.1,4.145,8.234,6.236,12.342,1.4,2.753,5.544.327,4.144-2.423Z"/><path class="c" d="M52.1,210.11c4.042-2.822,8.456-5.26,11.176-9.528,2.68-4.207,3.843-9.441,5.1-14.206,1.345-5.087,3.094-10.2,2.929-15.534a7.545,7.545,0,0,0-3.546-6.327,7.493,7.493,0,0,0-7.122.276c-4.3,2.44-4.294,8-6.469,11.893-.826,1.478-2.281,2.854-4.062,2.712-1.687-.133-1.717-2.642-1.729-4.09-.018-2.136.089-4.846,1.874-6.334,1.877-1.563,3.882.013,5.946.344a5.727,5.727,0,0,0,6.356-3.161,7.885,7.885,0,0,0-.378-7.065c-1.328-2.6-3.9-4.023-6.546-4.986a17.42,17.42,0,0,0-8.551-.944c-5.933.913-9.62,6.1-12.294,11.018-1.476,2.715,2.667,5.141,4.144,2.423,1.961-3.608,4.484-7.917,8.869-8.718a12.564,12.564,0,0,1,6.18.717c1.6.541,3.386,1.339,4.092,2.983.367.857.725,2.834-.461,3.094-.951.208-2.406-.582-3.284-.877a6.97,6.97,0,0,0-3.755-.207c-5.379,1.156-7.03,6.912-6.992,11.713.019,2.4.326,4.921,1.959,6.806a6.494,6.494,0,0,0,5.987,1.972c4.98-.756,7.228-5.21,8.644-9.538.552-1.688,1.076-3.893,2.271-5.128.646-.668,2.241-1.346,3.187-.526,1.45,1.258.912,3.807.713,5.472a49.322,49.322,0,0,1-1.67,7.3c-1.356,4.878-2.337,10.02-4.519,14.619s-6.466,6.88-10.474,9.678a2.463,2.463,0,0,0-.861,3.284,2.421,2.421,0,0,0,3.283.861Z"/><path class="c" d="M194.9,149.942c.074,4.05.3,8.588,2.553,12.1a28.387,28.387,0,0,0,6.077,6.416,78.14,78.14,0,0,0,7.327,5.294,33.865,33.865,0,0,0,4.112,2.441,2.473,2.473,0,0,0,3.284-.861,2.42,2.42,0,0,0-.861-3.284,31.694,31.694,0,0,1-3.712-2.185,70.892,70.892,0,0,1-6.292-4.423,43.067,43.067,0,0,1-3.306-2.91,20.773,20.773,0,0,1-2.219-2.514,11.245,11.245,0,0,1-.922-1.572c.261.549-.189-.519-.2-.564-.175-.52-.319-1.051-.442-1.586a30.91,30.91,0,0,1-.595-6.354c-.056-3.085-4.856-3.095-4.8,0Z"/><path class="c" d="M129.91,176.2a28.984,28.984,0,0,0,3.958-2.421,58.777,58.777,0,0,0,6.77-5.238,21.907,21.907,0,0,0,5.235-6.481c1.766-3.729,1.916-8.028,1.935-12.083.015-3.089-4.785-3.093-4.8,0a44.226,44.226,0,0,1-.29,5.754,15.288,15.288,0,0,1-1.216,4.36,20.16,20.16,0,0,1-4.722,5.471,51.825,51.825,0,0,1-5.751,4.35,26.818,26.818,0,0,1-3.542,2.143,2.419,2.419,0,0,0-.861,3.284,2.458,2.458,0,0,0,3.284.861Z"/><path class="d" d="M75.964,318.059a52.908,52.908,0,0,1-8.6,4.246,32.993,32.993,0,0,1-28.853-2.945c-11.455-6.877-15.334-19.88-17.076-33.126-2.507-19.066-2.508-38.762-2.865-57.175,11.433.8,31-2.12,43.153-4.645,1.727-5.867,3.692-12.043,6.491-19.348a28.929,28.929,0,0,1,6.04-9.85c2.59-2.78,6.61-3.56,10.03-5.22,11.13-5.37,25.67-11.36,37.08-16.12l2.415-1.007a61.722,61.722,0,0,1,11.772-9.8c4.983,21.36,13.835,44.417,20.852,65.2,5.329,15.783,9.482,26.262,15.761,41.831q7.064-20.915,14.126-41.831c7.017-20.78,15.869-43.837,20.852-65.2a60.866,60.866,0,0,1,11.216,9.224l2.176.907c11.408,4.759,25.941,10.746,37.072,16.123,3.424,1.654,8.344,3.222,11.313,5.6s5.63,5.926,7.408,11.852c6.181,20.605,13.833,80.741,18.721,148.3l-201.243.3c.01-11.29.6-18.64.6-28.59,0-7.38.126-14.152-.329-21.094l-1.965,1.4C87.872,310.088,81.89,314.549,75.964,318.059Z"/><path class="a" d="M22.035,228.984c-.392-3.271-.76-9.047-.915-10.026,2.765-.235,25.3-2.1,34.71-4.057.408,2.063,1.085,7.046,1.591,9.757"/><path class="c" d="M63.576,226.624c1.5-5.174,3.109-10.318,4.912-15.4,1.818-5.121,3.617-10.315,7.461-14.314,1.62-1.685,3.829-2.509,5.966-3.338,2.458-.954,4.81-2.109,7.2-3.221,5.166-2.4,10.389-4.684,15.629-6.923,5.737-2.45,11.5-4.839,17.257-7.24a2.481,2.481,0,0,0,1.676-2.953,2.415,2.415,0,0,0-2.952-1.676c-10.889,4.542-21.81,9.025-32.532,13.953-2.393,1.1-4.74,2.334-7.194,3.292a26.835,26.835,0,0,0-7.336,3.7c-4.506,3.624-6.841,9.372-8.782,14.625-2.214,5.994-4.149,12.081-5.932,18.216-.864,2.972,3.766,4.242,4.628,1.276Z"/><path class="a" d="M173.982,172.309a.762.762,0,0,0-.2.207h-4.637a5.976,5.976,0,0,0-2.053-1.162c-10.565-4.25-19.38-10.731-23.241-15.921-3.808,3.5-5.018,6.21-7.495,10.953,5.086,20.413,13.392,42.17,20.047,61.878,5.329,15.783,9.482,26.262,15.761,41.832q7.064-20.916,14.126-41.832c6.688-19.806,15.043-41.68,20.123-62.181-2.371-4.557-3.61-7.224-7.337-10.65-3.86,5.19-12.675,11.671-23.24,15.921A9.193,9.193,0,0,0,173.982,172.309Z"/><path class="a" d="M189.769,190.178a103.443,103.443,0,0,0,16-25.333c-1.984-3.828-3.318-6.308-6.695-9.412-3.86,5.19-12.675,11.671-23.24,15.921a5.984,5.984,0,0,0-2.054,1.162c-.253.471.239.885.471,1.255.363.581,2.148,2.074,5.185,5.407C182.882,182.96,186.917,186.771,189.769,190.178Z"/><path class="a" d="M153.154,190.178a103.473,103.473,0,0,1-16-25.333c1.985-3.828,3.319-6.308,6.695-9.412,3.861,5.19,12.676,11.671,23.241,15.921a5.976,5.976,0,0,1,2.053,1.162c.253.471-.239.885-.47,1.255-.364.581-2.148,2.074-5.185,5.407C160.042,182.96,156.006,186.771,153.154,190.178Z"/><path class="e" d="M174.411,175.511c-2.608.008-4.777.014-7.413.016-.864.856-2.04,2.038-3.51,3.651-.787.864-1.6,1.729-2.433,2.591.582,3.019.991,4.927,1.632,7.674.1.483.224.949.345,1.432a13.253,13.253,0,0,1,.518,3.175c0,.616-3.02,22.655-5.134,40.092,4.424,12.7,8.279,22.4,13.746,35.954l12.957-38.369c-2.658-17.775-5.471-36.348-5.454-37.332a19.339,19.339,0,0,1,1.242-5.625c.744-2.285,1.2-4.283,1.688-6.248-1.074-1.109-2.142-2.228-3.159-3.344-1.482-1.626-2.665-2.814-3.531-3.672Z"/><path class="c" d="M164.283,196.3c4.969,0,9.938-.109,14.908-.111a2.4,2.4,0,0,0,0-4.8c-4.97,0-9.939.109-14.908.111a2.4,2.4,0,1,0,0,4.8Z"/><path class="c" d="M158.975,183.611q.643,3.248,1.4,6.47a14.611,14.611,0,0,1,.758,4.184c-.1,1.483-.37,2.972-.563,4.444-.886,6.783-1.786,13.565-2.659,20.349q-.9,7-1.762,14.009a2.413,2.413,0,0,0,2.4,2.4,2.459,2.459,0,0,0,2.4-2.4c.991-8.115,2.041-16.223,3.1-24.329.625-4.764,1.471-9.555,1.866-14.345a13.874,13.874,0,0,0-.631-4.4c-.628-2.538-1.174-5.1-1.682-7.663a2.423,2.423,0,0,0-2.952-1.676,2.449,2.449,0,0,0-1.677,2.952Z"/><path class="c" d="M175.621,173.112q-4.421.007-8.841.019a2.4,2.4,0,1,0,0,4.8q4.421-.009,8.841-.019a2.4,2.4,0,0,0,0-4.8Z"/><path class="c" d="M187.431,231.077q-1.737-11.623-3.476-23.248-.641-4.32-1.266-8.644-.22-1.541-.433-3.083c-.025-.185.057.441-.006-.053-.019-.148-.039-.3-.058-.445-.033-.261-.072-.523-.094-.785a9.411,9.411,0,0,1,.459-3.279c.583-2.107,1.3-4.167,1.838-6.29.754-3-3.874-4.275-4.629-1.276-.852,3.385-2.635,6.99-2.5,10.536a44.648,44.648,0,0,0,.576,4.443c.9,6.405,1.873,12.8,2.83,19.2q1.064,7.1,2.127,14.2a2.416,2.416,0,0,0,2.952,1.676,2.46,2.46,0,0,0,1.676-2.952Z"/><path class="c" d="M168.418,273.7a50.613,50.613,0,0,0-2.782,16.5c.073,3.537.459,7.083.683,10.612.682,10.781,1.125,21.572,1.876,32.35q.774,11.109,1.748,22.2a2.463,2.463,0,0,0,2.4,2.4,2.418,2.418,0,0,0,2.4-2.4c-1.86-21.155-2.784-42.353-4.23-63.534a44.91,44.91,0,0,1,2.534-16.858c.96-2.944-3.674-4.2-4.629-1.276Z"/><path class="c" d="M204.825,162.429c-3.4,14.528-8.184,28.7-13.076,42.778q-7.477,21.521-14.76,43.1L168.417,273.7c-.99,2.933,3.644,4.192,4.629,1.276q7.7-22.8,15.4-45.6c4.73-14.005,9.848-27.878,14.34-41.964,2.494-7.821,4.8-15.708,6.67-23.7.7-3.005-3.923-4.287-4.629-1.276Z"/><path class="c" d="M205.928,165.14a54.991,54.991,0,0,1,10.09,8.2,56.2,56.2,0,0,1,4.583,5.122c.587.753,1.141,1.535,1.66,2.337.261.4.515.813.754,1.23.1.177.2.356.3.535q.107.2.207.4.169.345-.053-.173l.328-1.212c.169-.169.132-.169-.111,0l-.646.356-.861.475-2.368,1.306-4.52,2.493a2.419,2.419,0,0,0-.486,3.77c2.22,2.01,4.43,4.032,6.573,6.125q.676.661,1.345,1.332a8.909,8.909,0,0,1,1.643,1.687c.091.2.118-.057-.031.291-.321.751-.785,1.478-1.17,2.2q-4.035,7.556-8.216,15.033c-5.742,10.293-11.642,20.5-17.619,30.655q-4.952,8.414-9.965,16.788c-1.589,2.658,2.559,5.074,4.144,2.423,12.585-21.054,25.033-42.213,36.547-63.876.832-1.565,1.542-3.1.944-4.889-.528-1.579-1.908-2.728-3.05-3.871-2.506-2.511-5.122-4.91-7.751-7.291l-.486,3.77,6.028-3.325c1.749-.965,4.406-1.885,4.528-4.236.081-1.572-1.04-3.141-1.863-4.411a45.375,45.375,0,0,0-2.985-4.025A61.093,61.093,0,0,0,208.351,161c-2.643-1.615-5.057,2.534-2.423,4.145Z"/><path class="c" d="M133.235,163.705c3.4,14.528,8.185,28.7,13.077,42.778,4.723,13.6,9.24,27.283,14.3,40.76,2.8,7.457,5.759,14.852,8.736,22.24a2.475,2.475,0,0,0,2.952,1.676,2.416,2.416,0,0,0,1.677-2.952c-5.283-13.11-10.4-26.268-14.945-39.656-4.75-14-9.846-27.89-14.352-41.974-2.549-7.967-4.9-16-6.812-24.148-.705-3.006-5.334-1.734-4.629,1.276Z"/><path class="c" d="M134.338,161a61.089,61.089,0,0,0-15.068,13.352,45.672,45.672,0,0,0-2.9,3.887c-.853,1.3-2.032,2.937-1.953,4.549.117,2.36,2.775,3.269,4.529,4.236l6.027,3.325-.486-3.77c-2.454,2.223-4.9,4.46-7.249,6.79a18.057,18.057,0,0,0-3.144,3.454,5.074,5.074,0,0,0,.113,5.009c2.655,5.313,5.675,10.477,8.607,15.64,6.281,11.061,12.82,21.974,19.453,32.828q5.508,9.015,11.093,17.984c1.626,2.618,5.78.211,4.144-2.423-12.589-20.273-25.138-40.611-36.539-61.584q-1.119-2.058-2.219-4.125a3.75,3.75,0,0,1-.472-.9c-.05-.308-.1.186.047-.136.277-.6,1.179-1.221,1.642-1.687,2.557-2.572,5.231-5.024,7.918-7.457a2.419,2.419,0,0,0-.486-3.77l-4.52-2.493-2.152-1.187-1.077-.594c-.178-.1-.955-.724-.757-.354l.328,1.212c.016.382-.148.321.084-.09.1-.177.193-.357.293-.533q.353-.624.741-1.226c.511-.8,1.058-1.581,1.637-2.333a62.606,62.606,0,0,1,14.785-13.461c2.631-1.609.223-5.762-2.423-4.145Z"/><path class="c" d="M191.466,191.875a109.613,109.613,0,0,0,12.858-18.7q1.314-2.456,2.512-4.971a17.533,17.533,0,0,0,1.248-2.718c.327-1.191-.451-2.264-.984-3.268a31.484,31.484,0,0,0-6.328-8.479,2.447,2.447,0,0,0-3.77.486c-4.025,5.337-10.918,9.6-17.06,12.667-2,.995-4.088,1.762-6.09,2.731-2.092,1.012-3.315,2.981-1.836,5.135,1.56,2.27,3.865,4.1,5.723,6.12,3.4,3.7,7.087,7.155,10.333,11a2.42,2.42,0,0,0,3.394,0,2.45,2.45,0,0,0,0-3.394c-3.051-3.615-6.5-6.865-9.719-10.332-1.382-1.491-2.765-2.972-4.209-4.4-.389-.386-.773-.779-1.162-1.164-.156-.153-.5-.66-.008.043-.06-.084-.381-.633-.344-.471v1.276l.071-.276-.618,1.059c-.244.286.251-.171.433-.268s.373-.191.562-.277c.808-.364,1.642-.676,2.455-1.03q2.142-.933,4.222-2a69.786,69.786,0,0,0,7.382-4.372,43.99,43.99,0,0,0,10.616-9.621l-3.77.486a31.163,31.163,0,0,1,6.32,8.926v-2.422a109.908,109.908,0,0,1-15.625,24.847,2.466,2.466,0,0,0,0,3.394A2.419,2.419,0,0,0,191.466,191.875Z"/><path class="c" d="M154.851,188.481a109.94,109.94,0,0,1-15.624-24.847v2.422a31.173,31.173,0,0,1,6.319-8.926l-3.769-.486a43.99,43.99,0,0,0,10.616,9.621,69.856,69.856,0,0,0,7.382,4.372q1.977,1.017,4.015,1.911c.812.356,1.638.681,2.451,1.035.263.115.517.227.773.362.163.087.721.606.432.268l-.617-1.059.07.276v-1.276c.037-.162-.284.387-.343.471.5-.7.148-.2-.008-.043-.39.385-.773.778-1.162,1.164-1.444,1.431-2.828,2.912-4.209,4.4-3.214,3.467-6.668,6.717-9.72,10.332a2.465,2.465,0,0,0,0,3.394,2.42,2.42,0,0,0,3.394,0c2.855-3.382,6.066-6.443,9.1-9.664,1.405-1.494,2.778-3.016,4.227-4.468.7-.7,1.459-1.373,2.1-2.136,1.372-1.643,1.985-3.83-.03-5.3-1.651-1.2-3.817-1.783-5.661-2.647a69.695,69.695,0,0,1-10.889-6.325,37.493,37.493,0,0,1-7.768-7.115,2.447,2.447,0,0,0-3.77-.486,31.505,31.505,0,0,0-6.328,8.479c-.487.916-1.173,1.87-1.027,2.949a10.624,10.624,0,0,0,1.2,2.845q1.245,2.61,2.6,5.163a109.671,109.671,0,0,0,12.858,18.7,2.418,2.418,0,0,0,3.394,0A2.451,2.451,0,0,0,154.851,188.481Z"/><path class="c" d="M250.063,355.364c-.017-9.94-.586-19.866-.6-29.806-.018-10.871-.045-21.656,1.886-32.394,3.709-20.63,6.806-41.373,9.483-62.161,1.369-10.629,2.615-21.275,3.672-31.939a2.417,2.417,0,0,0-2.4-2.4,2.452,2.452,0,0,0-2.4,2.4c-1.954,19.714-4.506,39.372-7.437,58.963q-2.331,15.577-5.053,31.093a152.562,152.562,0,0,0-2.2,16.251c-.364,5.367-.373,10.749-.359,16.126.031,11.294.594,22.575.613,33.867,0,3.088,4.805,3.094,4.8,0Z"/><path class="c" d="M77.143,200.954c1.967,19.78,4.549,39.5,7.521,59.156q2.347,15.526,5.084,30.99a131.783,131.783,0,0,1,1.994,15.648c.3,5.226.286,10.463.27,15.7-.033,10.978-.591,21.943-.609,32.92-.005,3.089,4.795,3.093,4.8,0,.015-9.535.589-19.056.6-28.59.011-10.665.161-21.322-1.535-31.888-1.661-10.346-3.595-20.646-5.2-31q-2.378-15.316-4.389-30.686c-1.4-10.729-2.663-21.476-3.734-32.243a2.468,2.468,0,0,0-2.4-2.4,2.416,2.416,0,0,0-2.4,2.4Z"/><path class="c" d="M219.894,175.512c14.333,5.979,28.532,12.21,42.694,18.574a19.133,19.133,0,0,1,7.508,5.381,24.188,24.188,0,0,1,4.051,8.4c1.049,3.573,1.867,7.216,2.625,10.861,2.26,10.875,3.922,21.878,5.449,32.877,2.039,14.683,3.731,29.415,5.253,44.16q2.7,26.151,4.66,52.372.261,3.464.512,6.927a2.459,2.459,0,0,0,2.4,2.4,2.419,2.419,0,0,0,2.4-2.4q-1.957-27.01-4.63-53.965c-1.558-15.576-3.315-31.133-5.4-46.647-1.558-11.583-3.257-23.165-5.532-34.632-1.917-9.661-3.69-21.1-12.17-27.3-2.983-2.179-6.59-3.328-9.928-4.83-3.464-1.559-6.874-3.238-10.343-4.788-7.627-3.407-15.334-6.634-23.044-9.848l-5.226-2.178a2.416,2.416,0,0,0-2.953,1.676,2.461,2.461,0,0,0,1.677,2.952Z"/><path class="c" d="M188.424,283.621c.267.24.483.531.742.773q-.364-.482-.15-.185c.047.067.092.134.135.2.074.117.143.236.208.359.1.191.208.608-.024-.107.045.14.1.276.149.417a5.54,5.54,0,0,1,.183.834l-.086-.638a6.032,6.032,0,0,1,0,1.513l.086-.638a6.626,6.626,0,0,1-.173.838c-.033.117-.069.234-.108.349s-.231.587-.035.122,0-.017-.053.091-.11.208-.169.309-.117.185-.177.277c-.248.384.42-.482.141-.178-.1.107-.5.65-.644.626.016,0,.556-.389.188-.156-.059.038-.117.078-.177.115q-.2.127-.416.235c-.063.032-.128.061-.192.092-.338.167.5-.184.228-.1-.136.044-.268.1-.406.139a6.82,6.82,0,0,1-1,.219l.638-.086a7.121,7.121,0,0,1-1.816.006l.638.086a8.4,8.4,0,0,1-1.4-.358c.724.231.394.171.209.08-.117-.057-.233-.12-.345-.187-.083-.05-.162-.1-.243-.157-.33-.212.512.441.129.1a8.516,8.516,0,0,1-.624-.622c-.283-.311.343.508-.006-.014-.067-.1-.13-.2-.189-.307s-.107-.207-.161-.311c-.187-.363.22.622.035.046a4.719,4.719,0,0,1-.171-.751l.086.638a5.2,5.2,0,0,1,0-1.3l-.086.638a6.056,6.056,0,0,1,.2-.905c.043-.141.093-.279.143-.417.162-.456-.243.5-.024.063a9.187,9.187,0,0,1,.46-.829q.12-.189.251-.37a1.034,1.034,0,0,1,.133-.18c-.073.064-.394.477-.132.182.09-.1.177-.2.274-.3s.465-.391.1-.113.041-.019.14-.081c.135-.085.273-.163.416-.235.024-.012.173-.1.194-.092,0,0-.592.226-.273.116.139-.048.276-.1.416-.142a6.366,6.366,0,0,1,.983-.208l-.638.085a6.5,6.5,0,0,1,1.577,0l-.638-.085a5.742,5.742,0,0,1,.662.132c.091.024.18.05.269.079s.5.195.08.016c-.4-.172-.073-.029.019.017s.2.1.294.161.188.122.281.183c.338.221-.459-.376-.132-.1a2.554,2.554,0,0,0,1.7.7,2.4,2.4,0,0,0,1.7-4.1,7.642,7.642,0,0,0-4.905-1.866A8.119,8.119,0,0,0,182.4,279.6a8.608,8.608,0,0,0-3.607,8.656,7.448,7.448,0,0,0,3.058,4.353,8.37,8.37,0,0,0,11.584-2.631,8.38,8.38,0,0,0,.967-4.491,7.95,7.95,0,0,0-2.586-5.257,2.4,2.4,0,0,0-3.395,3.394Z"/><path class="a" d="M22.593,218.833c-.681.059-1.185.1-1.473.125.155.979.523,6.755.915,10.026,0,0,.006.074.014.206,10.223.1,24.657-1.905,35.473-3.943-.064-.368-.1-.589-.1-.589-.506-2.711-1.183-7.694-1.591-9.757C47.4,216.653,28.444,218.333,22.593,218.833Z"/><path class="c" d="M24.435,228.984c-.415-3.543-.491-7.133-1-10.664l-2.314,3.038c9.152-.777,18.3-1.625,27.409-2.858,2.656-.359,5.313-.745,7.939-1.285l-2.952-1.676c.625,3.235,1,6.516,1.591,9.757a2.422,2.422,0,0,0,2.952,1.676,2.452,2.452,0,0,0,1.677-2.952c-.6-3.241-.966-6.522-1.592-9.757a2.443,2.443,0,0,0-2.952-1.677c-9.719,2-19.766,2.711-29.709,3.595q-2.181.195-4.363.377a2.453,2.453,0,0,0-2.314,3.038c-.086-.595-.042-.332-.007.054.031.341.062.681.091,1.021.073.87.142,1.741.213,2.611.155,1.9.31,3.806.532,5.7a2.474,2.474,0,0,0,2.4,2.4,2.415,2.415,0,0,0,2.4-2.4Z"/><path class="c" d="M69.2,273.6c-2.314-16.3-3.987-32.678-5.69-49.053a2.446,2.446,0,0,0-3.038-2.314c-7.011,1.427-14.086,2.587-21.192,3.425a113.2,113.2,0,0,1-20.713,1,2.421,2.421,0,0,0-2.4,2.4c.228,11.855.317,23.717.951,35.561.317,5.942.77,11.88,1.445,17.793a108.978,108.978,0,0,0,2.529,14.976c2.313,8.935,6.669,17.366,14.331,22.818a35.8,35.8,0,0,0,30.693,5.035A57.981,57.981,0,0,0,80.6,318.01c4.347-2.8,8.51-5.864,12.721-8.861a2.466,2.466,0,0,0,.861-3.283,2.419,2.419,0,0,0-3.284-.861c-7.275,5.176-14.547,10.976-22.836,14.466a31.128,31.128,0,0,1-27.511-1.7c-7.631-4.325-12.019-11.812-14.39-20.053-2.826-9.819-3.476-20.3-4.09-30.449-.771-12.723-.857-25.471-1.1-38.211l-2.4,2.4a114.287,114.287,0,0,0,21.112-1.052q11.1-1.329,22.069-3.55l-3.038-2.314c1.748,16.8,3.487,33.6,5.862,50.329a2.414,2.414,0,0,0,2.952,1.676A2.463,2.463,0,0,0,69.2,273.6Z"/><path class="c" d="M162.278,128.968a20.656,20.656,0,0,0,9.953,2.3c3.551-.023,7.156-.714,10-2.932a2.414,2.414,0,0,0,0-3.394,2.463,2.463,0,0,0-3.4,0c.716-.557.114-.1-.069.019q-.3.194-.623.36c-.155.082-.9.386-.279.154-.285.107-.568.218-.858.312a14.45,14.45,0,0,1-5.1.681,15.013,15.013,0,0,1-4.867-.655c-.314-.094-.62-.207-.931-.313-.1-.035-.2-.087-.3-.117.6.173.194.087.03.01q-.576-.272-1.14-.569a2.451,2.451,0,0,0-3.283.861,2.425,2.425,0,0,0,.861,3.283Z"/><path class="c" d="M171.109,105.393a47.054,47.054,0,0,1,1.111,5.084l-.086-.638a3.054,3.054,0,0,1,.019.7l.086-.638a1.628,1.628,0,0,1-.077.315l.242-.573a1.374,1.374,0,0,1-.111.2l.375-.486a1.03,1.03,0,0,1-.166.164l.485-.375a3.355,3.355,0,0,1-.4.213l.573-.242a2.971,2.971,0,0,1-.679.2l.638-.086a2.662,2.662,0,0,1-.637,0l.638.086c-.24-.034-.475-.092-.716-.124a2.649,2.649,0,0,0-1.849.241,2.4,2.4,0,0,0-.861,3.284,2.3,2.3,0,0,0,1.434,1.1c.529.071,1.041.206,1.579.23a5.006,5.006,0,0,0,2.3-.544,3.278,3.278,0,0,0,1.831-2.167,5.511,5.511,0,0,0-.024-2.357c-.277-1.638-.655-3.261-1.077-4.868a2.4,2.4,0,0,0-4.628,1.276Z"/><path class="c" d="M143.922,91.051c-.849,2.759-.3,9.105,4.931,9.646,6.908-.042,7.276-7.715,4.95-11.323C151.9,86.42,146.3,85.192,143.922,91.051Z"/><path class="c" d="M199.456,91.051c.849,2.759.3,9.106-4.931,9.646-6.908-.042-7.276-7.715-4.951-11.323C191.478,86.42,197.077,85.192,199.456,91.051Z"/><path class="c" d="M121.244,84.153a11.1,11.1,0,0,0-12.2-1.72c-3,1.429-4.721,4.384-5.477,7.513-1.775,7.345.086,15.7,4.293,21.926,3.046,4.508,7.453,7.843,13.125,7.058a2.414,2.414,0,0,0,1.676-2.952A2.463,2.463,0,0,0,119.7,114.3c-3.193.442-5.954-2.309-7.6-4.7a27.627,27.627,0,0,1-3.467-7.419,22.427,22.427,0,0,1-.818-8.782,13.519,13.519,0,0,1,.909-3.937,8.686,8.686,0,0,1,.685-1.252c.087-.137.351-.449.1-.153.171-.2.353-.393.542-.579a4.454,4.454,0,0,1,1.405-.906,6.545,6.545,0,0,1,1.869-.427,5.861,5.861,0,0,1,4.519,1.4c2.282,2.072,5.687-1.312,3.394-3.394Z"/><path class="c" d="M223.782,87.547a5.663,5.663,0,0,1,8.193.351c.319.33-.1-.185.137.163.132.194.259.389.376.591a11.159,11.159,0,0,1,1.2,3.772,24.159,24.159,0,0,1-3.452,16.082c-1.673,2.773-4.651,6.3-8.308,5.8a2.482,2.482,0,0,0-2.952,1.676,2.417,2.417,0,0,0,1.676,2.952c9.259,1.281,14.677-8,17.017-15.619a26.836,26.836,0,0,0,.676-11.986c-.521-3.237-1.887-6.34-4.643-8.252a11.011,11.011,0,0,0-13.314,1.08c-2.292,2.081,1.111,5.467,3.394,3.394Z"/><path class="c" d="M219.29,112.1a67.011,67.011,0,0,1-3.512,10.637c.108-.28.108-.235-.072.151-.092.2-.182.4-.276.592-.243.509-.5,1.012-.76,1.511-.649,1.233-1.345,2.443-2.072,3.632a63.8,63.8,0,0,1-13.842,16.408,25.481,25.481,0,0,1-10.237,5.3c-3.009.693-1.735,5.322,1.276,4.629,7.757-1.786,14.208-7.469,19.268-13.355a69.563,69.563,0,0,0,10.788-16.3c.166-.368.324-.739.478-1.112.04-.1.324-.787.182-.451-.185.433.132-.284.134-.288.137-.311.267-.624.4-.938q.325-.786.624-1.583a50.532,50.532,0,0,0,2.252-7.563,2.458,2.458,0,0,0-1.676-2.952,2.423,2.423,0,0,0-2.952,1.676Z"/><path class="c" d="M117.567,113.2a64.053,64.053,0,0,0,9.013,21.217c4.6,6.933,10.658,13.422,17.981,17.512a35.659,35.659,0,0,0,12.176,4.166,2.479,2.479,0,0,0,2.952-1.676,2.417,2.417,0,0,0-1.676-2.952c-15.24-2.245-26.624-15.444-32.43-28.968a60.89,60.89,0,0,1-3.388-10.575c-.681-3.012-5.31-1.737-4.628,1.276Z"/><path class="c" d="M210.911,15.841A47.69,47.69,0,0,0,183.584,1.134,72.151,72.151,0,0,0,151.643,2.58a62.308,62.308,0,0,0-26.848,15.5,57.037,57.037,0,0,0-5.668,6.565c-1.274,1.735-2.833,3.24-4.061,5.036a51.421,51.421,0,0,0-6.517,14.181,64.769,64.769,0,0,0-2.754,19.72,88.682,88.682,0,0,0,2.381,20.6c.764,2.991,5.395,1.723,4.628-1.276a76.183,76.183,0,0,1-2.172-17.2,66.226,66.226,0,0,1,1.453-16.436,53.4,53.4,0,0,1,5.262-14.139,31.526,31.526,0,0,1,3.482-5.153c.691-.808,1.449-1.531,2.074-2.393.8-1.105,1.651-2.165,2.552-3.192A56.415,56.415,0,0,1,149.48,8.3a67.176,67.176,0,0,1,29.558-3.008c10.93,1.219,21.039,5.734,28.479,13.946,2.078,2.294,5.465-1.109,3.394-3.394Z"/><path class="c" d="M233.2,84.183a74.728,74.728,0,0,0,2.382-16.222,93.98,93.98,0,0,0-1.076-15.291c-1.065-7.363-3.278-14.649-7.57-20.8a52.25,52.25,0,0,0-7.839-8.75c-2.283-2.071-5.688,1.314-3.394,3.4,4.686,4.25,8.614,9.026,10.948,14.8,3.1,7.684,4.011,16.267,4.136,24.49a67.2,67.2,0,0,1-2.216,17.1c-.735,3,3.892,4.28,4.629,1.276Z"/><path class="c" d="M170.522,49.5a95.331,95.331,0,0,0-12.491-1.121,74.245,74.245,0,0,0-11.827,0c-3.115.36-6.175,1.089-8.672,3.089-2.291,1.834-3.583,4.479-4.706,7.123a23.559,23.559,0,0,1-3.756,6.623c-1.631,1.863-3.489,3.518-5.051,5.443a16.483,16.483,0,0,0-3.7,8.3c-.48,3.2-.714,6.405-.967,9.626a2.421,2.421,0,0,0,2.4,2.4,2.448,2.448,0,0,0,2.4-2.4c.365-4.641.079-10.184,2.939-14.1,2.8-3.837,6.759-6.538,8.8-10.962,1.09-2.363,1.878-4.994,3.462-7.094,1.527-2.023,3.9-2.791,6.318-3.168a56.64,56.64,0,0,1,10.73-.148c2.465.093,4.929.226,7.388.417,1.116.086,2.232.184,3.346.306.2.022.407.045.61.07.107.012.913.121.37.044q.568.079,1.133.18a2.466,2.466,0,0,0,2.952-1.676,2.421,2.421,0,0,0-1.676-2.952Z"/><path class="c" d="M194.116,57.766a38.7,38.7,0,0,1,7.451,2.344,15.614,15.614,0,0,1,4.963,3.577c3.866,3.985,5.831,9.018,7.476,14.351.908,2.942,5.543,1.687,4.629-1.276a59.026,59.026,0,0,0-3.921-10.044,28.347,28.347,0,0,0-4.79-6.425c-3.943-4.066-9.128-5.9-14.532-7.155-3.006-.7-4.289,3.929-1.276,4.628Z"/><path class="c" d="M186.239,51.951c-.79-3.363-3.43-6.229-6.078-8.289a30.672,30.672,0,0,0-15.089-5.918,2.412,2.412,0,0,0-2.4,2.4,2.462,2.462,0,0,0,2.4,2.4,28.267,28.267,0,0,1,7.057,1.9c-.276-.114.342.152.4.177.273.124.544.254.813.387q.721.36,1.42.763.666.385,1.3.813c.221.148.44.3.655.454.078.056.595.442.222.155a19.381,19.381,0,0,1,2,1.779q.4.4.767.832c.137.158.269.321.4.483.111.139.074.092-.108-.142q.1.135.2.273a13.732,13.732,0,0,1,1.043,1.719c.061.123.11.256.176.376-.322-.586-.1-.274-.046-.086.081.269.174.529.238.8a2.4,2.4,0,0,0,4.629-1.276Z"/></svg>